<svg width="800" height="600" xmlns="http://www.w3.org/2000/svg">
 <g>
  <title>Layer 1</title>
  <g stroke="null" id="svg_17">
   <path stroke="#39ccbb" fill="#39ccbb" opacity="undefined" d="m311.45856,104.17241l50.40207,14.58734l-119.98439,353.93773l-50.40207,0.17627l119.98439,-368.70134z" id="svg_1"/>
   <path stroke="#39ccbb" fill="#39ccbb" opacity="undefined" d="m313.09156,103.56209l295.43428,0l-10.65212,32.06982c-99.31928,1.9138 -197.69743,-0.2734 -297.01668,1.6404l12.23454,-33.71022l-0.00002,0z" id="svg_2"/>
   <path stroke="#39ccbb" fill="#39ccbb" opacity="undefined" d="m264.18404,255.2991l293.74419,0l-9.76445,32.06982l-295.24133,0l11.26159,-32.06982z" id="svg_4"/>
   <path stroke="#aa17b5" fill="#aa17b5" opacity="undefined" d="m299.21581,439.84409l199.23808,0l-11.5398,32.89001l-202.92294,0l15.22466,-32.89001z" id="svg_8"/>
   <path stroke="#aa17b5" fill="#aa17b5" opacity="undefined" d="m352.47291,255.51271l54.02442,0.74847l-72.40023,216.21996l-52.07982,-0.4275l70.45563,-216.54093z" id="svg_9"/>
   <path stroke="#aa17b5" fill="#aa17b5" opacity="undefined" d="m353.88302,255.2991l204.04519,0l-12.05418,32.06982l-202.40857,0l10.41755,-32.06982z" id="svg_15"/>
   <path stroke="#000" fill="none" opacity="undefined" d="m326.59962,496.43789" id="svg_16"/>
  </g>
 </g>

</svg>